<?xml version="1.0" encoding="UTF-8" standalone="no"?>
<svg
   xmlns:dc="http://purl.org/dc/elements/1.1/"
   xmlns:cc="http://creativecommons.org/ns#"
   xmlns:rdf="http://www.w3.org/1999/02/22-rdf-syntax-ns#"
   xmlns:svg="http://www.w3.org/2000/svg"
   xmlns="http://www.w3.org/2000/svg"
   xmlns:sodipodi="http://sodipodi.sourceforge.net/DTD/sodipodi-0.dtd"
   xmlns:inkscape="http://www.inkscape.org/namespaces/inkscape"
   width="109.91071mm"
   height="109.91071mm"
   viewBox="0 0 109.91071 109.91072"
   version="1.1"
   id="svg1027"
   inkscape:version="1.0.2 (e86c870879, 2021-01-15)"
   sodipodi:docname="logo.svg">
  <defs
     id="defs1021" />
  <sodipodi:namedview
     id="base"
     pagecolor="#ffffff"
     bordercolor="#666666"
     borderopacity="1.0"
     inkscape:pageopacity="0.0"
     inkscape:pageshadow="2"
     inkscape:zoom="1.4"
     inkscape:cx="186.44874"
     inkscape:cy="238.58263"
     inkscape:document-units="mm"
     inkscape:current-layer="layer1"
     inkscape:document-rotation="0"
     showgrid="false"
     fit-margin-top="0"
     fit-margin-left="0"
     fit-margin-right="0"
     fit-margin-bottom="0"
     inkscape:window-width="1421"
     inkscape:window-height="1080"
     inkscape:window-x="126"
     inkscape:window-y="199"
     inkscape:window-maximized="1" />
  <metadata
     id="metadata1024">
    <rdf:RDF>
      <cc:Work
         rdf:about="">
        <dc:format>image/svg+xml</dc:format>
        <dc:type
           rdf:resource="http://purl.org/dc/dcmitype/StillImage" />
        <dc:title></dc:title>
      </cc:Work>
    </rdf:RDF>
  </metadata>
  <g
     inkscape:label="Layer 1"
     inkscape:groupmode="layer"
     id="layer1"
     transform="translate(3.8902211,40.317061)">
    <circle
       style="opacity:1;fill:#ffffff;fill-opacity:1;stroke:#ffffff;stroke-width:0;stroke-miterlimit:4;stroke-dasharray:none;stroke-opacity:1"
       id="path2854"
       cx="51.065136"
       cy="14.638296"
       r="54.955357" />
    <g
       id="g2560"
       transform="translate(-103.24047,-122.26367)">
      <g
         id="path915-3-9"
         transform="rotate(-18.9,284.13729,-115.86047)"
         style="fill:#5e5397;fill-opacity:1;stroke:#5e5397;stroke-width:0;stroke-miterlimit:4;stroke-dasharray:none;stroke-opacity:1">
        <path
           style="color:#000000;font-style:normal;font-variant:normal;font-weight:normal;font-stretch:normal;font-size:medium;line-height:normal;font-family:sans-serif;font-variant-ligatures:normal;font-variant-position:normal;font-variant-caps:normal;font-variant-numeric:normal;font-variant-alternates:normal;font-variant-east-asian:normal;font-feature-settings:normal;font-variation-settings:normal;text-indent:0;text-align:start;text-decoration:none;text-decoration-line:none;text-decoration-style:solid;text-decoration-color:#000000;letter-spacing:normal;word-spacing:normal;text-transform:none;writing-mode:lr-tb;direction:ltr;text-orientation:mixed;dominant-baseline:auto;baseline-shift:baseline;text-anchor:start;white-space:normal;shape-padding:0;shape-margin:0;inline-size:0;clip-rule:nonzero;display:inline;overflow:visible;visibility:visible;isolation:auto;mix-blend-mode:normal;color-interpolation:sRGB;color-interpolation-filters:linearRGB;solid-color:#000000;solid-opacity:1;vector-effect:none;fill:#5e5397;fill-opacity:1;fill-rule:nonzero;stroke:#5e5397;stroke-width:0;stroke-linecap:butt;stroke-linejoin:miter;stroke-miterlimit:4;stroke-dasharray:none;stroke-dashoffset:0;stroke-opacity:1;color-rendering:auto;image-rendering:auto;shape-rendering:auto;text-rendering:auto;enable-background:accumulate;stop-color:#000000;stop-opacity:1"
           d="m 61.266625,95.017417 -16.993004,-0.095 -0.910468,-1.08203 c -0.867366,-1.0308 -0.910468,-1.28115 -0.910468,-5.28829 0,-3.91045 0.04756,-4.20627 0.676309,-4.20627 2.293186,0 5.934723,-2.85856 7.19049,-5.64444 0.944127,-2.09452 0.921597,-5.40119 -0.04961,-7.28134 -1.374098,-2.6601 -5.034932,-5.41866 -7.19099,-5.41866 -0.666066,0 -0.692927,-0.20772 -0.574279,-4.441 0.114875,-4.09867 0.18552,-4.49042 0.916483,-5.08222 1.23145,-0.99701 5.925986,-1.18696 23.196878,-0.9386 8.537223,0.12277 19.76879,0.22502 24.95903,0.22723 l 9.436804,0.004 v 1.18004 c 0,0.74321 0.26884,1.42334 0.72621,1.83726 1.05579,0.95548 1.89047,0.30518 2.02944,-1.58113 l 0.1098,-1.49057 6.71233,0.11539 6.71233,0.1154 0.85078,0.98981 c 0.79646,0.92661 0.85078,1.25886 0.85078,5.20347 0,3.98609 -0.0383,4.21366 -0.7094,4.21366 -2.46966,0 -6.59386,3.63113 -7.40183,6.5169 -0.56777,2.0279 -0.28943,4.94353 0.64722,6.77951 0.87341,1.71204 2.99803,3.67747 4.64438,4.29639 3.21863,1.21001 2.90856,0.6122 2.76832,5.33724 -0.17898,6.03046 0.16204,5.79037 -8.42431,5.93093 l -6.69382,0.10958 v -0.92652 c 0,-1.37783 -0.62277,-2.29125 -1.56217,-2.29125 -0.91653,0 -1.26006,0.58493 -1.26006,2.14552 v 1.02948 l -11.377084,-0.0847 c -6.2574,-0.0466 -19.023937,-0.12749 -28.37009,-0.17976 z m 39.047025,-1.5876 c 0.007,-1.52067 0.34226,-1.97453 1.65108,-2.2363 1.40014,-0.28003 2.57685,0.79205 2.57685,2.34772 v 1.08157 l 5.98835,-0.11143 c 7.49284,-0.13941 7.25901,0.018 7.61189,-5.12577 0.27748,-4.0449 0.57458,-3.51655 -2.66154,-4.73313 -1.65865,-0.62355 -3.77143,-2.58683 -4.67001,-4.33957 -0.95609,-1.8649 -1.24335,-5.90543 -0.58111,-8.1738 0.86307,-2.95629 4.8885,-6.49054 7.39257,-6.49054 0.71489,0 0.73647,-0.13564 0.62121,-3.90592 -0.15935,-5.21227 -0.10391,-5.17743 -8.3215,-5.23114 l -5.37986,-0.0352 v 1.34056 c 0,1.61339 -0.49713,2.18722 -1.89486,2.18722 -1.43239,0 -2.33847,-0.90966 -2.33847,-2.34773 v -1.18005 l -18.432644,-0.0327 c -37.706953,-0.0668 -36.547321,-0.0835 -37.498011,0.53944 -0.787207,0.5158 -0.866932,0.80131 -0.870459,3.11731 -0.0022,1.40223 -0.102282,3.14482 -0.222547,3.87243 -0.192103,1.16221 -0.132585,1.32291 0.489967,1.32291 2.132093,0 5.819982,2.74657 7.154968,5.32869 1.305206,2.52451 1.218069,6.68947 -0.198503,9.48798 -0.718284,1.41901 -3.431879,3.91089 -4.493315,4.12619 -0.537615,0.10905 -1.062921,0.33652 -1.167348,0.50549 -0.104428,0.16898 -0.577374,0.30723 -1.050993,0.30723 -0.855128,0 -0.861124,0.0244 -0.861124,3.50071 0,3.24878 0.06553,3.57859 0.910597,4.58289 l 0.910597,1.08218 17.874821,0.0947 c 9.831152,0.0521 22.28013,0.13292 27.66441,0.17961 l 9.789584,0.0849 0.005,-1.14653 z m 0.57844,-4.4375 c -0.69308,-0.76585 -0.80415,-3.93233 -0.16051,-4.57597 0.23284,-0.23284 1.03052,-0.42334 1.77262,-0.42334 1.12377,0 1.40679,0.15125 1.69334,0.90491 0.62795,1.65165 0.425,3.58449 -0.44001,4.19037 -1.04371,0.73104 -2.15055,0.69397 -2.86544,-0.096 z m 2.87749,-1.93507 c 0.22105,-1.83495 -1.22937,-3.03842 -2.33244,-1.93535 -0.61279,0.61279 -0.51942,2.41355 0.16431,3.16907 0.51401,0.56797 0.67978,0.58854 1.32291,0.16415 0.4044,-0.26686 0.78475,-0.8959 0.84522,-1.39787 z m -2.87077,-5.3463 c -0.7035,-0.7035 -0.82241,-4.04775 -0.16723,-4.70294 0.23284,-0.23283 0.99484,-0.42333 1.69334,-0.42333 0.6985,0 1.4605,0.1905 1.69333,0.42333 0.47591,0.47591 0.56771,3.74181 0.1248,4.43986 -0.48648,0.76672 -2.66892,0.93841 -3.34424,0.26308 z m 2.79393,-1.42838 c 0.49204,-1.96046 -0.60643,-3.5794 -1.88519,-2.77841 -0.81744,0.51203 -1.00302,2.7014 -0.28946,3.41496 0.72059,0.7206 1.92231,0.36884 2.17465,-0.63655 z m -2.97509,-6.36032 c -0.50781,-1.11453 -0.53002,-3.1558 -0.0442,-4.06354 0.42186,-0.78826 2.74118,-0.96266 3.44481,-0.25903 0.23283,0.23283 0.42333,1.31233 0.42333,2.39889 0,2.31286 -0.38454,2.82222 -2.13059,2.82222 -1.03351,0 -1.36378,-0.17526 -1.69334,-0.89854 z m 2.69504,-0.23035 c 0.23284,-0.23283 0.42334,-0.99483 0.42334,-1.69333 0,-1.9901 -1.64551,-2.95066 -2.45704,-1.4343 -1.06832,1.99617 0.59979,4.56155 2.0337,3.12763 z m -2.55527,-7.0635 c -0.71762,-1.02453 -0.71452,-3.5863 0.005,-4.30602 0.30491,-0.30491 1.00795,-0.55437 1.56232,-0.55437 1.5245,0 2.11666,0.82621 2.11666,2.95326 0,1.01448 -0.1905,2.03502 -0.42333,2.26785 -0.72614,0.72614 -2.64852,0.51349 -3.26083,-0.36072 z m 2.55527,-0.34483 c 0.93026,-0.93026 0.18366,-3.81 -0.98777,-3.81 -0.57835,0 -1.41112,1.1136 -1.41112,1.88698 0,0.93434 0.92493,2.34635 1.53695,2.34635 0.24124,0 0.62911,-0.1905 0.86194,-0.42333 z"
           id="path1662-6-1" />
        <path
           style="color:#000000;font-style:normal;font-variant:normal;font-weight:normal;font-stretch:normal;font-size:medium;line-height:normal;font-family:sans-serif;font-variant-ligatures:normal;font-variant-position:normal;font-variant-caps:normal;font-variant-numeric:normal;font-variant-alternates:normal;font-variant-east-asian:normal;font-feature-settings:normal;font-variation-settings:normal;text-indent:0;text-align:start;text-decoration:none;text-decoration-line:none;text-decoration-style:solid;text-decoration-color:#000000;letter-spacing:normal;word-spacing:normal;text-transform:none;writing-mode:lr-tb;direction:ltr;text-orientation:mixed;dominant-baseline:auto;baseline-shift:baseline;text-anchor:start;white-space:normal;shape-padding:0;shape-margin:0;inline-size:0;clip-rule:nonzero;display:inline;overflow:visible;visibility:visible;isolation:auto;mix-blend-mode:normal;color-interpolation:sRGB;color-interpolation-filters:linearRGB;solid-color:#000000;solid-opacity:1;vector-effect:none;fill:#5e5397;fill-opacity:1;fill-rule:nonzero;stroke:#5e5397;stroke-width:0;stroke-linecap:butt;stroke-linejoin:miter;stroke-miterlimit:4;stroke-dasharray:none;stroke-dashoffset:0;stroke-opacity:1;color-rendering:auto;image-rendering:auto;shape-rendering:auto;text-rendering:auto;enable-background:accumulate;stop-color:#000000;stop-opacity:1"
           d="m 66.625,55.013672 c -8.638061,-0.124218 -14.130417,-0.140078 -17.640625,0.002 -3.510208,0.142031 -5.037215,0.358632 -5.894531,1.052734 -0.403192,0.326431 -0.739803,0.78242 -0.876953,1.542969 -0.137151,0.760549 -0.176866,1.881707 -0.234375,3.933594 -0.05936,2.117993 -0.09174,3.211424 -0.0039,3.890625 0.04391,0.3396 0.115017,0.632084 0.363282,0.857422 0.248264,0.225337 0.546352,0.234375 0.740234,0.234375 0.853486,0 2.269325,0.623658 3.572266,1.605468 1.30294,0.981811 2.518735,2.302701 3.152343,3.529297 0.857209,1.659462 0.894636,4.919868 0.03711,6.822266 -0.577256,1.280625 -1.753557,2.651617 -3.050782,3.669922 -1.297224,1.018304 -2.732331,1.664062 -3.660156,1.664062 -0.198472,0 -0.502988,0.03259 -0.734375,0.253907 -0.231386,0.221315 -0.306547,0.497613 -0.359375,0.826172 -0.105654,0.657117 -0.109375,1.696937 -0.109375,3.654296 0,2.005458 0.0051,3.073587 0.138672,3.84961 0.133606,0.776023 0.452048,1.249164 0.896485,1.777344 l 1.066406,1.267578 16.730468,0.09375 0.50586,0.002 c 9.345796,0.05227 22.112536,0.135046 28.36914,0.18164 l 11.908211,0.08789 v -1.560547 c 0,-0.741662 0.10117,-1.200398 0.21289,-1.390625 0.11172,-0.190227 0.17327,-0.228516 0.51953,-0.228516 0.29905,0 0.50523,0.115876 0.69922,0.400391 0.19398,0.284515 0.33593,0.755644 0.33593,1.365235 v 1.460937 l 7.23047,-0.117187 c 2.14419,-0.0351 3.73397,-0.04658 4.94532,-0.140626 1.21134,-0.09405 2.06751,-0.25853 2.71289,-0.71289 0.64537,-0.45436 0.95634,-1.181224 1.09375,-2.074219 0.1374,-0.892995 0.14485,-2.012862 0.18945,-3.515625 0.0698,-2.35036 0.26293,-3.383255 -0.18359,-4.24414 -0.22327,-0.430443 -0.61952,-0.700161 -1.08594,-0.908204 -0.46643,-0.208042 -1.04595,-0.392949 -1.83985,-0.691406 -1.44234,-0.542229 -3.57086,-2.493511 -4.36132,-4.042969 -0.8533,-1.672595 -1.12978,-4.539727 -0.60938,-6.398437 0.35674,-1.274126 1.53516,-2.868686 2.91992,-4.087891 1.38476,-1.219205 2.99977,-2.044922 3.97657,-2.044922 0.19753,0 0.48628,-0.01285 0.73437,-0.224609 0.24809,-0.211759 0.33533,-0.497735 0.39063,-0.826172 0.11058,-0.656874 0.10937,-1.694722 0.10937,-3.689453 0,-1.974722 -0.007,-3.047779 -0.13281,-3.818359 -0.12599,-0.77058 -0.4291,-1.246108 -0.84375,-1.728516 l -1.00586,-1.167969 -6.94727,-0.121093 -7.21094,-0.123047 -0.14648,1.986328 c -0.0641,0.870547 -0.32466,1.36821 -0.46875,1.480469 -0.072,0.05613 -0.0959,0.06166 -0.19336,0.04297 -0.0974,-0.0187 -0.27195,-0.0972 -0.48828,-0.292968 -0.32073,-0.290257 -0.55273,-0.831023 -0.55273,-1.447266 v -1.707031 l -9.962898,-0.0039 C 86.394476,55.238027 75.159787,55.136407 66.625,55.013672 Z m 49.60547,1.441406 0.82812,0.01367 0.21485,0.25 c -0.25898,-0.151711 -0.71478,-0.170978 -1.04297,-0.263672 z m -72.396486,0.404297 c -0.08838,0.07587 -0.140775,0.18471 -0.216796,0.273437 0.05623,-0.05407 0.04629,-0.174459 0.134765,-0.246093 0.01042,-0.0084 0.06994,-0.0188 0.08203,-0.02734 z m 38.041016,0.111328 17.90625,0.03125 v 0.654297 c 0,0.829612 0.27023,1.567023 0.78516,2.083984 0.51492,0.516962 1.25243,0.791016 2.08007,0.791016 0.77092,0 1.43722,-0.173306 1.86914,-0.671875 0.43193,-0.498569 0.55274,-1.182197 0.55274,-2.042969 v -0.810547 l 4.84961,0.03125 c 4.10953,0.02686 6.13644,0.117637 6.90625,0.601563 0.3849,0.241963 0.56096,0.542828 0.6914,1.197266 0.13045,0.654437 0.16131,1.617893 0.20118,2.921874 0.0576,1.883945 0.0691,2.883944 0.008,3.269532 -0.0307,0.192794 -0.057,0.157393 0.008,0.111328 0.0648,-0.04607 0.0507,-0.01758 -0.11133,-0.01758 -1.49973,0 -3.17359,0.964118 -4.6582,2.267578 -1.48461,1.303459 -2.76085,2.968173 -3.23828,4.603516 -0.36043,1.23457 -0.44978,2.84811 -0.33789,4.421874 0.11188,1.573765 0.41637,3.087905 0.95508,4.138672 0.97861,1.90885 3.09159,3.891975 4.95312,4.591797 0.8183,0.307629 1.41156,0.506345 1.79492,0.673828 0.38337,0.167483 0.51164,0.276718 0.58008,0.398438 0.0684,0.12172 0.11691,0.372274 0.10156,0.878906 -0.0153,0.506632 -0.0844,1.235501 -0.15429,2.253906 -0.0885,1.289721 -0.14414,2.238443 -0.27539,2.882813 -0.13126,0.64437 -0.29512,0.935424 -0.62305,1.15625 -0.65586,0.441652 -2.44922,0.525931 -6.19922,0.595703 l -5.45117,0.101563 v -0.544922 c 0,-0.910584 -0.34883,-1.717409 -0.93555,-2.251954 -0.58671,-0.534544 -1.4169,-0.782246 -2.27148,-0.611328 -0.70332,0.140666 -1.27456,0.361766 -1.63477,0.84961 -0.244013,0.330477 -0.249669,0.822641 -0.298826,1.287109 l -0.138672,-0.02734 -0.002,0.640625 -0.0039,0.617188 -9.259765,-0.08008 C 85.137389,93.918138 72.689104,93.837259 62.857422,93.785156 l -17.63086,-0.09375 -0.753906,-0.896484 c -0.408569,-0.485555 -0.555434,-0.68584 -0.660156,-1.212891 -0.104722,-0.527051 -0.126953,-1.408447 -0.126953,-3.029297 0,-1.737852 0.02372,-2.644975 0.09375,-2.929687 0.03502,-0.142356 0.0071,-0.05507 -0.03125,-0.03711 -0.03833,0.01796 0.06021,-0.0078 0.271484,-0.0078 0.288038,0 0.563658,-0.03916 0.810547,-0.111328 0.246889,-0.07217 0.482183,-0.113079 0.6875,-0.445313 -0.0998,0.161484 0.01167,0.0041 0.183594,-0.07031 0.171921,-0.07445 0.408973,-0.150277 0.640625,-0.197266 0.416442,-0.08447 0.80185,-0.31223 1.244141,-0.617187 0.44229,-0.304957 0.917601,-0.693893 1.382812,-1.121094 0.930422,-0.854402 1.808709,-1.828947 2.232422,-2.666016 1.507706,-2.97855 1.613407,-7.223938 0.195312,-9.966797 -0.723353,-1.399104 -2.023248,-2.763594 -3.43164,-3.8125 -1.408392,-1.048905 -2.897327,-1.800781 -4.189453,-1.800781 -0.03216,0 -0.02038,-4.37e-4 -0.04492,-0.002 0.0089,-0.04091 -0.0063,-0.222124 0.07422,-0.708984 0.134657,-0.814683 0.226277,-2.530434 0.228515,-3.957032 0.0018,-1.151991 0.03738,-1.786952 0.123047,-2.09375 0.08567,-0.306797 0.146596,-0.346025 0.509766,-0.583984 0.277812,-0.182036 0.184211,-0.198172 0.742187,-0.27539 0.557976,-0.07722 1.676141,-0.135383 3.941406,-0.167969 4.530532,-0.06517 13.671827,-0.04317 32.525391,-0.0098 z m 21.88477,2.017578 c -0.0207,0.03385 -0.0168,0.155931 -0.0391,0.181641 -0.0166,0.01919 -0.0883,0.01364 -0.10742,0.03125 0.0554,-0.06408 0.0995,-0.140241 0.14649,-0.212891 z m -1.33594,2.253907 c -0.71232,-10e-7 -1.44408,0.217515 -1.9336,0.707031 -0.580313,0.580479 -0.694209,1.480168 -0.695308,2.412109 -7.45e-4,0.631476 0.233288,1.179387 0.427738,1.740234 h -0.376957 l 0.580077,0.828126 c 0.44318,0.632738 1.20579,0.918417 1.96094,1.001953 0.75515,0.08353 1.55801,-0.02481 2.10351,-0.570313 0.16881,-0.168809 0.22565,-0.326994 0.28907,-0.507812 0.0634,-0.180818 0.1143,-0.38465 0.15625,-0.609375 0.0839,-0.449451 0.13281,-0.983242 0.13281,-1.523438 0,-1.112383 -0.13836,-1.955597 -0.58594,-2.580078 -0.44758,-0.624481 -1.20123,-0.898438 -2.05859,-0.898437 z M 102.42578,63 c 0.0771,0 0.20112,0.05275 0.36133,0.259766 0.16021,0.207012 0.31621,0.539984 0.41016,0.902343 0.18789,0.72472 0.067,1.526748 -0.15625,1.75 -0.12764,0.127633 -0.52617,0.267579 -0.49024,0.267579 0.0494,0 -0.038,-0.0071 -0.1582,-0.109376 -0.12022,-0.102268 -0.26649,-0.273169 -0.39844,-0.474609 -0.2639,-0.40288 -0.45312,-0.940937 -0.45312,-1.234375 0,-0.197713 0.15429,-0.614345 0.38281,-0.919922 C 102.15234,63.135829 102.47453,63 102.42578,63 Z M 102.25,68.644531 c -0.40594,0.03052 -0.80216,0.110912 -1.15625,0.253907 -0.35409,0.142994 -0.68841,0.344037 -0.88477,0.710937 -0.321956,0.601573 -0.421026,1.388893 -0.412105,2.208984 0.0089,0.820092 0.138419,1.657276 0.441405,2.322266 l 0.14063,0.308594 h 0.11914 c 0.15781,0.2481 0.29316,0.519429 0.55468,0.658203 0.38409,0.203807 0.81091,0.240234 1.35743,0.240234 0.46211,0 0.85917,-0.03096 1.2207,-0.138672 0.36153,-0.107707 0.69213,-0.313492 0.91992,-0.615234 0.45559,-0.603483 0.51758,-1.410094 0.51758,-2.595703 0,-0.574049 -0.0496,-1.139572 -0.13281,-1.611328 -0.0416,-0.235878 -0.0915,-0.44756 -0.1543,-0.634766 -0.0628,-0.187205 -0.11435,-0.348725 -0.29102,-0.525391 -0.57172,-0.57172 -1.42835,-0.643079 -2.24023,-0.582031 z m 1.30273,1.291016 c 0.0361,0.0195 0.17536,0.01911 0.19336,0.03711 -0.0602,-0.06025 -10e-4,5.96e-4 0.0371,0.115235 0.0115,0.03438 0.0233,0.100956 0.0352,0.144531 -0.0766,-0.114931 -0.17365,-0.201132 -0.26563,-0.296875 z m -2.40625,0.166015 c -0.003,0.004 -0.007,0.0057 -0.01,0.0098 3.6e-4,-6.88e-4 -3.7e-4,-0.0032 0,-0.0039 3.9e-4,-7.35e-4 0.009,-0.005 0.01,-0.0059 z m 1.12891,0.265626 c 0.11701,-0.04015 0.22436,-0.03097 0.37109,0.05469 0.29348,0.171315 0.66211,0.726234 0.66211,1.576172 0,0.301386 -0.0421,0.633203 -0.10742,0.894531 -0.0653,0.261328 -0.19604,0.463622 -0.16015,0.427734 -0.26689,0.266884 -0.43329,0.285286 -0.59571,0.251954 -0.16242,-0.03333 -0.37141,-0.175464 -0.54687,-0.445313 -0.35093,-0.539699 -0.49078,-1.499612 -0.0547,-2.314453 0.15704,-0.293437 0.31463,-0.405165 0.43164,-0.445312 z m -51.191406,2.402343 c 0.01349,0.06705 0.03077,0.127262 0.04297,0.195313 -0.01493,-0.06585 -0.02663,-0.130439 -0.04297,-0.195313 z m 50.328126,1.226563 c 0.0812,0.08165 0.17872,0.133052 0.27148,0.199218 -0.0263,-0.0094 -0.11744,-0.0074 -0.13671,-0.01758 -0.0468,-0.0248 -0.0935,-0.137461 -0.13477,-0.18164 z m 1.01367,2.0625 c -0.39711,0 -0.79789,0.0525 -1.15039,0.140625 -0.3525,0.08813 -0.6473,0.16684 -0.91601,0.435547 -0.32779,0.327785 -0.418006,0.734359 -0.496099,1.199218 -0.07809,0.464859 -0.102918,0.992904 -0.08398,1.525391 0.01893,0.532487 0.08093,1.065495 0.191406,1.533203 0.110473,0.467708 0.238523,0.873294 0.556633,1.191406 0.55396,0.553965 1.37374,0.622105 2.15625,0.560547 0.78251,-0.06156 1.57938,-0.244975 2.00391,-0.914062 0.21464,-0.338279 0.26253,-0.699554 0.3125,-1.144531 0.05,-0.444978 0.0649,-0.954378 0.0508,-1.457032 -0.0141,-0.502653 -0.0556,-0.99685 -0.13086,-1.417968 -0.0752,-0.421119 -0.10379,-0.750277 -0.42969,-1.076172 -0.26871,-0.268719 -0.56351,-0.347422 -0.91601,-0.435547 -0.3525,-0.08813 -0.75133,-0.140625 -1.14844,-0.140625 z m 1.0332,1.214844 c 0.13625,0.05597 0.3112,0.131509 0.28711,0.107421 -0.0223,-0.02234 0.0309,0.112799 0.0352,0.13086 -0.0817,-0.110596 -0.22093,-0.147442 -0.32227,-0.238281 z m -2.12109,0.01953 c -0.13469,0.125068 -0.2512,0.262166 -0.3418,0.419922 0.0463,-0.12322 0.10753,-0.332132 0.10743,-0.332032 -0.0197,0.01966 0.14053,-0.04558 0.23437,-0.08789 z m 1.24414,0.542969 c 0.1273,0.03228 0.26593,0.125943 0.39649,0.318359 0.26111,0.384832 0.41829,1.142684 0.20312,2 -0.16332,0.650707 -0.83796,0.845643 -1.29102,0.392578 -0.15026,-0.150263 -0.32859,-0.762567 -0.27734,-1.367187 0.0512,-0.604621 0.3368,-1.142193 0.47461,-1.228516 0.22333,-0.139892 0.36684,-0.147517 0.49414,-0.115234 z m -52.228514,1.771484 c -0.03814,0.08263 -0.05131,0.187588 -0.0918,0.267578 -0.04888,0.09657 -0.255533,0.27662 -0.332031,0.392578 0.151422,-0.218289 0.294655,-0.436326 0.423828,-0.660156 z m 53.460934,1.488281 c -0.003,0.0069 -0.0149,0.06923 -0.0156,0.07031 -0.002,0.0024 -0.0272,0.0091 -0.0293,0.01172 0.0205,-0.02255 0.0255,-0.05835 0.0449,-0.08203 z M 48.470703,81.98828 c -0.09099,0.08819 -0.120554,0.165208 -0.212891,0.25 -0.104648,0.0961 -0.199791,0.157056 -0.304687,0.248047 0.180778,-0.157882 0.344816,-0.330119 0.517578,-0.498047 z m -1.451172,1.25586 c -0.0096,0.0067 -0.02171,0.01881 -0.03125,0.02539 -0.02658,0.01833 -0.0324,0.01391 -0.05859,0.03125 0.02977,-0.02126 0.06015,-0.03506 0.08984,-0.05664 z m 55.484379,0.222656 c -0.41611,0 -0.83339,0.0513 -1.19922,0.138672 -0.36583,0.08737 -0.66709,0.161228 -0.94531,0.439453 -0.3189,0.318892 -0.412442,0.711656 -0.490239,1.160156 -0.0778,0.4485 -0.102016,0.958606 -0.08398,1.472656 0.01803,0.51405 0.07735,1.029709 0.185547,1.488282 0.108202,0.458572 0.241562,0.859576 0.531242,1.179687 l 0.91603,1.013672 v -0.582031 c 0.26391,0.111996 0.47813,0.349744 0.76561,0.359375 0.63169,0.02116 1.28006,-0.199096 1.87696,-0.617188 0.63213,-0.442769 0.91014,-1.2243 1,-2.080078 0.0899,-0.855778 -0.0262,-1.82131 -0.3711,-2.728515 -0.15958,-0.419716 -0.38396,-0.801496 -0.77733,-1.011719 -0.39338,-0.210223 -0.8227,-0.232422 -1.4082,-0.232422 z m -59.382816,1.367187 c -0.04125,0.03945 -0.06745,0.03557 0.0078,0.03516 -0.0077,0.0079 -0.01209,0.01723 -0.01953,0.02539 -3.21e-4,-0.0021 0.02359,-0.0719 0.01172,-0.06055 z m 59.201176,0.392578 c 0.14471,-0.0069 0.29033,0.04067 0.4414,0.166016 0.30215,0.250703 0.57496,0.833414 0.48242,1.601563 -0.0354,0.293552 -0.39772,0.880526 -0.61132,1.021484 -0.30095,0.198588 -0.40176,0.201288 -0.35547,0.207031 0.0463,0.0057 -0.0469,-0.01971 -0.28711,-0.285156 -0.21023,-0.232295 -0.40609,-0.781951 -0.4336,-1.3125 -0.0275,-0.530549 0.1354,-1.016256 0.25,-1.130859 0.20113,-0.201126 0.36896,-0.260725 0.51368,-0.267579 z m 1.34765,2.917969 c -0.0845,0.151765 -0.12503,0.448811 -0.21484,0.511719 -0.0437,0.03058 -0.0778,0.01395 -0.1211,0.04102 0.17136,-0.140757 0.20894,-0.370294 0.33594,-0.552735 z m -1.87695,3.6875 c -0.27503,0.08682 -0.54243,0.167951 -0.73047,0.382813 0.006,-0.01 0.005,-0.05347 0.0117,-0.0625 0.0986,-0.133517 0.40958,-0.224712 0.71875,-0.320313 z m 1.12891,0.103516 c 0.15848,0.06691 0.37173,0.01418 0.50195,0.132812 0.0433,0.03946 0.0326,0.13659 0.0723,0.181641 -0.16219,-0.157995 -0.3693,-0.221356 -0.57421,-0.314453 z M 118.25,92.650391 c -1.3e-4,8.78e-4 1.3e-4,0.003 0,0.0039 -0.11732,0.762447 -0.29317,1.116052 -0.6582,1.373047 -0.0287,0.02017 -0.13929,0.02182 -0.17188,0.04102 0.41746,-0.350832 0.67777,-0.837929 0.83008,-1.417967 z"
           id="path1664-7-2" />
      </g>
      <path
         style="fill:#ffffff;fill-opacity:1;stroke:#ffffff;stroke-width:0.264583px;stroke-linecap:butt;stroke-linejoin:miter;stroke-opacity:1"
         d="m 170.37277,134.08705 4.25223,3.82701 -9.96912,-26.03311 7.843,-2.64583 8.55171,20.26897 c 0,0 1.51191,9.02418 1.51191,8.83519 0,-0.18898 -2.4096,-0.51971 -2.4096,-0.51971 l -3.54353,1.27567 z"
         id="path2554" />
    </g>
    <path
       style="fill:#ffffff;fill-opacity:1;stroke:#000000;stroke-width:0;stroke-linecap:butt;stroke-linejoin:miter;stroke-miterlimit:4;stroke-dasharray:none;stroke-opacity:1"
       d="m 74.106273,-4.1465804 8.04203,-0.57206 1.67843,7.12085 2.93996,1.5368 h 4.27631 l 2.873151,9.5548904 -0.46772,2.20497 -4.944491,2.40543 -6.1472,1.87088 -43.89901,15.23436 -13.49712,4.67722 -5.4122,0.33409 -4.19734,-10.87307 5.40005,-6.03173 -1.40317,-7.08264 -4.00904,-2.73951 -5.22168,-2.16859 L 9.1932927,3.7458396 21.152023,-0.20367039 Z"
       id="path2760" />
    <g
       id="path915-3"
       transform="rotate(-6.1,-474.57148,353.4689)"
       style="fill:#5e5397;fill-opacity:1;stroke:#5e5397;stroke-width:0;stroke-miterlimit:4;stroke-dasharray:none;stroke-opacity:1">
      <path
         style="color:#000000;font-style:normal;font-variant:normal;font-weight:normal;font-stretch:normal;font-size:medium;line-height:normal;font-family:sans-serif;font-variant-ligatures:normal;font-variant-position:normal;font-variant-caps:normal;font-variant-numeric:normal;font-variant-alternates:normal;font-variant-east-asian:normal;font-feature-settings:normal;font-variation-settings:normal;text-indent:0;text-align:start;text-decoration:none;text-decoration-line:none;text-decoration-style:solid;text-decoration-color:#000000;letter-spacing:normal;word-spacing:normal;text-transform:none;writing-mode:lr-tb;direction:ltr;text-orientation:mixed;dominant-baseline:auto;baseline-shift:baseline;text-anchor:start;white-space:normal;shape-padding:0;shape-margin:0;inline-size:0;clip-rule:nonzero;display:inline;overflow:visible;visibility:visible;isolation:auto;mix-blend-mode:normal;color-interpolation:sRGB;color-interpolation-filters:linearRGB;solid-color:#000000;solid-opacity:1;vector-effect:none;fill:#5e5397;fill-opacity:1;fill-rule:nonzero;stroke:#5e5397;stroke-width:0;stroke-linecap:butt;stroke-linejoin:miter;stroke-miterlimit:4;stroke-dasharray:none;stroke-dashoffset:0;stroke-opacity:1;color-rendering:auto;image-rendering:auto;shape-rendering:auto;text-rendering:auto;enable-background:accumulate;stop-color:#000000;stop-opacity:1"
         d="m 61.266625,95.017417 -16.993004,-0.095 -0.910468,-1.08203 c -0.867366,-1.0308 -0.910468,-1.28115 -0.910468,-5.28829 0,-3.91045 0.04756,-4.20627 0.676309,-4.20627 2.293186,0 5.934723,-2.85856 7.19049,-5.64444 0.944127,-2.09452 0.921597,-5.40119 -0.04961,-7.28134 -1.374098,-2.6601 -5.034932,-5.41866 -7.19099,-5.41866 -0.666066,0 -0.692927,-0.20772 -0.574279,-4.441 0.114875,-4.09867 0.18552,-4.49042 0.916483,-5.08222 1.23145,-0.99701 5.925986,-1.18696 23.196878,-0.9386 8.537223,0.12277 19.76879,0.22502 24.95903,0.22723 l 9.436804,0.004 v 1.18004 c 0,0.74321 0.26884,1.42334 0.72621,1.83726 1.05579,0.95548 1.89047,0.30518 2.02944,-1.58113 l 0.1098,-1.49057 6.71233,0.11539 6.71233,0.1154 0.85078,0.98981 c 0.79646,0.92661 0.85078,1.25886 0.85078,5.20347 0,3.98609 -0.0383,4.21366 -0.7094,4.21366 -2.46966,0 -6.59386,3.63113 -7.40183,6.5169 -0.56777,2.0279 -0.28943,4.94353 0.64722,6.77951 0.87341,1.71204 2.99803,3.67747 4.64438,4.29639 3.21863,1.21001 2.90856,0.6122 2.76832,5.33724 -0.17898,6.03046 0.16204,5.79037 -8.42431,5.93093 l -6.69382,0.10958 v -0.92652 c 0,-1.37783 -0.62277,-2.29125 -1.56217,-2.29125 -0.91653,0 -1.26006,0.58493 -1.26006,2.14552 v 1.02948 l -11.377084,-0.0847 c -6.2574,-0.0466 -19.023937,-0.12749 -28.37009,-0.17976 z m 39.047025,-1.5876 c 0.007,-1.52067 0.34226,-1.97453 1.65108,-2.2363 1.40014,-0.28003 2.57685,0.79205 2.57685,2.34772 v 1.08157 l 5.98835,-0.11143 c 7.49284,-0.13941 7.25901,0.018 7.61189,-5.12577 0.27748,-4.0449 0.57458,-3.51655 -2.66154,-4.73313 -1.65865,-0.62355 -3.77143,-2.58683 -4.67001,-4.33957 -0.95609,-1.8649 -1.24335,-5.90543 -0.58111,-8.1738 0.86307,-2.95629 4.8885,-6.49054 7.39257,-6.49054 0.71489,0 0.73647,-0.13564 0.62121,-3.90592 -0.15935,-5.21227 -0.10391,-5.17743 -8.3215,-5.23114 l -5.37986,-0.0352 v 1.34056 c 0,1.61339 -0.49713,2.18722 -1.89486,2.18722 -1.43239,0 -2.33847,-0.90966 -2.33847,-2.34773 v -1.18005 l -18.432644,-0.0327 c -37.706953,-0.0668 -36.547321,-0.0835 -37.498011,0.53944 -0.787207,0.5158 -0.866932,0.80131 -0.870459,3.11731 -0.0022,1.40223 -0.102282,3.14482 -0.222547,3.87243 -0.192103,1.16221 -0.132585,1.32291 0.489967,1.32291 2.132093,0 5.819982,2.74657 7.154968,5.32869 1.305206,2.52451 1.218069,6.68947 -0.198503,9.48798 -0.718284,1.41901 -3.431879,3.91089 -4.493315,4.12619 -0.537615,0.10905 -1.062921,0.33652 -1.167348,0.50549 -0.104428,0.16898 -0.577374,0.30723 -1.050993,0.30723 -0.855128,0 -0.861124,0.0244 -0.861124,3.50071 0,3.24878 0.06553,3.57859 0.910597,4.58289 l 0.910597,1.08218 17.874821,0.0947 c 9.831152,0.0521 22.28013,0.13292 27.66441,0.17961 l 9.789584,0.0849 0.005,-1.14653 z m 0.57844,-4.4375 c -0.69308,-0.76585 -0.80415,-3.93233 -0.16051,-4.57597 0.23284,-0.23284 1.03052,-0.42334 1.77262,-0.42334 1.12377,0 1.40679,0.15125 1.69334,0.90491 0.62795,1.65165 0.425,3.58449 -0.44001,4.19037 -1.04371,0.73104 -2.15055,0.69397 -2.86544,-0.096 z m 2.87749,-1.93507 c 0.22105,-1.83495 -1.22937,-3.03842 -2.33244,-1.93535 -0.61279,0.61279 -0.51942,2.41355 0.16431,3.16907 0.51401,0.56797 0.67978,0.58854 1.32291,0.16415 0.4044,-0.26686 0.78475,-0.8959 0.84522,-1.39787 z m -2.87077,-5.3463 c -0.7035,-0.7035 -0.82241,-4.04775 -0.16723,-4.70294 0.23284,-0.23283 0.99484,-0.42333 1.69334,-0.42333 0.6985,0 1.4605,0.1905 1.69333,0.42333 0.47591,0.47591 0.56771,3.74181 0.1248,4.43986 -0.48648,0.76672 -2.66892,0.93841 -3.34424,0.26308 z m 2.79393,-1.42838 c 0.49204,-1.96046 -0.60643,-3.5794 -1.88519,-2.77841 -0.81744,0.51203 -1.00302,2.7014 -0.28946,3.41496 0.72059,0.7206 1.92231,0.36884 2.17465,-0.63655 z m -2.97509,-6.36032 c -0.50781,-1.11453 -0.53002,-3.1558 -0.0442,-4.06354 0.42186,-0.78826 2.74118,-0.96266 3.44481,-0.25903 0.23283,0.23283 0.42333,1.31233 0.42333,2.39889 0,2.31286 -0.38454,2.82222 -2.13059,2.82222 -1.03351,0 -1.36378,-0.17526 -1.69334,-0.89854 z m 2.69504,-0.23035 c 0.23284,-0.23283 0.42334,-0.99483 0.42334,-1.69333 0,-1.9901 -1.64551,-2.95066 -2.45704,-1.4343 -1.06832,1.99617 0.59979,4.56155 2.0337,3.12763 z m -2.55527,-7.0635 c -0.71762,-1.02453 -0.71452,-3.5863 0.005,-4.30602 0.30491,-0.30491 1.00795,-0.55437 1.56232,-0.55437 1.5245,0 2.11666,0.82621 2.11666,2.95326 0,1.01448 -0.1905,2.03502 -0.42333,2.26785 -0.72614,0.72614 -2.64852,0.51349 -3.26083,-0.36072 z m 2.55527,-0.34483 c 0.93026,-0.93026 0.18366,-3.81 -0.98777,-3.81 -0.57835,0 -1.41112,1.1136 -1.41112,1.88698 0,0.93434 0.92493,2.34635 1.53695,2.34635 0.24124,0 0.62911,-0.1905 0.86194,-0.42333 z"
         id="path1662-6" />
      <path
         style="color:#000000;font-style:normal;font-variant:normal;font-weight:normal;font-stretch:normal;font-size:medium;line-height:normal;font-family:sans-serif;font-variant-ligatures:normal;font-variant-position:normal;font-variant-caps:normal;font-variant-numeric:normal;font-variant-alternates:normal;font-variant-east-asian:normal;font-feature-settings:normal;font-variation-settings:normal;text-indent:0;text-align:start;text-decoration:none;text-decoration-line:none;text-decoration-style:solid;text-decoration-color:#000000;letter-spacing:normal;word-spacing:normal;text-transform:none;writing-mode:lr-tb;direction:ltr;text-orientation:mixed;dominant-baseline:auto;baseline-shift:baseline;text-anchor:start;white-space:normal;shape-padding:0;shape-margin:0;inline-size:0;clip-rule:nonzero;display:inline;overflow:visible;visibility:visible;isolation:auto;mix-blend-mode:normal;color-interpolation:sRGB;color-interpolation-filters:linearRGB;solid-color:#000000;solid-opacity:1;vector-effect:none;fill:#5e5397;fill-opacity:1;fill-rule:nonzero;stroke:#5e5397;stroke-width:0;stroke-linecap:butt;stroke-linejoin:miter;stroke-miterlimit:4;stroke-dasharray:none;stroke-dashoffset:0;stroke-opacity:1;color-rendering:auto;image-rendering:auto;shape-rendering:auto;text-rendering:auto;enable-background:accumulate;stop-color:#000000;stop-opacity:1"
         d="m 66.625,55.013672 c -8.638061,-0.124218 -14.130417,-0.140078 -17.640625,0.002 -3.510208,0.142031 -5.037215,0.358632 -5.894531,1.052734 -0.403192,0.326431 -0.739803,0.78242 -0.876953,1.542969 -0.137151,0.760549 -0.176866,1.881707 -0.234375,3.933594 -0.05936,2.117993 -0.09174,3.211424 -0.0039,3.890625 0.04391,0.3396 0.115017,0.632084 0.363282,0.857422 0.248264,0.225337 0.546352,0.234375 0.740234,0.234375 0.853486,0 2.269325,0.623658 3.572266,1.605468 1.30294,0.981811 2.518735,2.302701 3.152343,3.529297 0.857209,1.659462 0.894636,4.919868 0.03711,6.822266 -0.577256,1.280625 -1.753557,2.651617 -3.050782,3.669922 -1.297224,1.018304 -2.732331,1.664062 -3.660156,1.664062 -0.198472,0 -0.502988,0.03259 -0.734375,0.253907 -0.231386,0.221315 -0.306547,0.497613 -0.359375,0.826172 -0.105654,0.657117 -0.109375,1.696937 -0.109375,3.654296 0,2.005458 0.0051,3.073587 0.138672,3.84961 0.133606,0.776023 0.452048,1.249164 0.896485,1.777344 l 1.066406,1.267578 16.730468,0.09375 0.50586,0.002 c 9.345796,0.05227 22.112536,0.135046 28.36914,0.18164 l 11.908211,0.08789 v -1.560547 c 0,-0.741662 0.10117,-1.200398 0.21289,-1.390625 0.11172,-0.190227 0.17327,-0.228516 0.51953,-0.228516 0.29905,0 0.50523,0.115876 0.69922,0.400391 0.19398,0.284515 0.33593,0.755644 0.33593,1.365235 v 1.460937 l 7.23047,-0.117187 c 2.14419,-0.0351 3.73397,-0.04658 4.94532,-0.140626 1.21134,-0.09405 2.06751,-0.25853 2.71289,-0.71289 0.64537,-0.45436 0.95634,-1.181224 1.09375,-2.074219 0.1374,-0.892995 0.14485,-2.012862 0.18945,-3.515625 0.0698,-2.35036 0.26293,-3.383255 -0.18359,-4.24414 -0.22327,-0.430443 -0.61952,-0.700161 -1.08594,-0.908204 -0.46643,-0.208042 -1.04595,-0.392949 -1.83985,-0.691406 -1.44234,-0.542229 -3.57086,-2.493511 -4.36132,-4.042969 -0.8533,-1.672595 -1.12978,-4.539727 -0.60938,-6.398437 0.35674,-1.274126 1.53516,-2.868686 2.91992,-4.087891 1.38476,-1.219205 2.99977,-2.044922 3.97657,-2.044922 0.19753,0 0.48628,-0.01285 0.73437,-0.224609 0.24809,-0.211759 0.33533,-0.497735 0.39063,-0.826172 0.11058,-0.656874 0.10937,-1.694722 0.10937,-3.689453 0,-1.974722 -0.007,-3.047779 -0.13281,-3.818359 -0.12599,-0.77058 -0.4291,-1.246108 -0.84375,-1.728516 l -1.00586,-1.167969 -6.94727,-0.121093 -7.21094,-0.123047 -0.14648,1.986328 c -0.0641,0.870547 -0.32466,1.36821 -0.46875,1.480469 -0.072,0.05613 -0.0959,0.06166 -0.19336,0.04297 -0.0974,-0.0187 -0.27195,-0.0972 -0.48828,-0.292968 -0.32073,-0.290257 -0.55273,-0.831023 -0.55273,-1.447266 v -1.707031 l -9.962898,-0.0039 C 86.394476,55.238027 75.159787,55.136407 66.625,55.013672 Z m 49.60547,1.441406 0.82812,0.01367 0.21485,0.25 c -0.25898,-0.151711 -0.71478,-0.170978 -1.04297,-0.263672 z m -72.396486,0.404297 c -0.08838,0.07587 -0.140775,0.18471 -0.216796,0.273437 0.05623,-0.05407 0.04629,-0.174459 0.134765,-0.246093 0.01042,-0.0084 0.06994,-0.0188 0.08203,-0.02734 z m 38.041016,0.111328 17.90625,0.03125 v 0.654297 c 0,0.829612 0.27023,1.567023 0.78516,2.083984 0.51492,0.516962 1.25243,0.791016 2.08007,0.791016 0.77092,0 1.43722,-0.173306 1.86914,-0.671875 0.43193,-0.498569 0.55274,-1.182197 0.55274,-2.042969 v -0.810547 l 4.84961,0.03125 c 4.10953,0.02686 6.13644,0.117637 6.90625,0.601563 0.3849,0.241963 0.56096,0.542828 0.6914,1.197266 0.13045,0.654437 0.16131,1.617893 0.20118,2.921874 0.0576,1.883945 0.0691,2.883944 0.008,3.269532 -0.0307,0.192794 -0.057,0.157393 0.008,0.111328 0.0648,-0.04607 0.0507,-0.01758 -0.11133,-0.01758 -1.49973,0 -3.17359,0.964118 -4.6582,2.267578 -1.48461,1.303459 -2.76085,2.968173 -3.23828,4.603516 -0.36043,1.23457 -0.44978,2.84811 -0.33789,4.421874 0.11188,1.573765 0.41637,3.087905 0.95508,4.138672 0.97861,1.90885 3.09159,3.891975 4.95312,4.591797 0.8183,0.307629 1.41156,0.506345 1.79492,0.673828 0.38337,0.167483 0.51164,0.276718 0.58008,0.398438 0.0684,0.12172 0.11691,0.372274 0.10156,0.878906 -0.0153,0.506632 -0.0844,1.235501 -0.15429,2.253906 -0.0885,1.289721 -0.14414,2.238443 -0.27539,2.882813 -0.13126,0.64437 -0.29512,0.935424 -0.62305,1.15625 -0.65586,0.441652 -2.44922,0.525931 -6.19922,0.595703 l -5.45117,0.101563 v -0.544922 c 0,-0.910584 -0.34883,-1.717409 -0.93555,-2.251954 -0.58671,-0.534544 -1.4169,-0.782246 -2.27148,-0.611328 -0.70332,0.140666 -1.27456,0.361766 -1.63477,0.84961 -0.244013,0.330477 -0.249669,0.822641 -0.298826,1.287109 l -0.138672,-0.02734 -0.002,0.640625 -0.0039,0.617188 -9.259765,-0.08008 C 85.137389,93.918138 72.689104,93.837259 62.857422,93.785156 l -17.63086,-0.09375 -0.753906,-0.896484 c -0.408569,-0.485555 -0.555434,-0.68584 -0.660156,-1.212891 -0.104722,-0.527051 -0.126953,-1.408447 -0.126953,-3.029297 0,-1.737852 0.02372,-2.644975 0.09375,-2.929687 0.03502,-0.142356 0.0071,-0.05507 -0.03125,-0.03711 -0.03833,0.01796 0.06021,-0.0078 0.271484,-0.0078 0.288038,0 0.563658,-0.03916 0.810547,-0.111328 0.246889,-0.07217 0.482183,-0.113079 0.6875,-0.445313 -0.0998,0.161484 0.01167,0.0041 0.183594,-0.07031 0.171921,-0.07445 0.408973,-0.150277 0.640625,-0.197266 0.416442,-0.08447 0.80185,-0.31223 1.244141,-0.617187 0.44229,-0.304957 0.917601,-0.693893 1.382812,-1.121094 0.930422,-0.854402 1.808709,-1.828947 2.232422,-2.666016 1.507706,-2.97855 1.613407,-7.223938 0.195312,-9.966797 -0.723353,-1.399104 -2.023248,-2.763594 -3.43164,-3.8125 -1.408392,-1.048905 -2.897327,-1.800781 -4.189453,-1.800781 -0.03216,0 -0.02038,-4.37e-4 -0.04492,-0.002 0.0089,-0.04091 -0.0063,-0.222124 0.07422,-0.708984 0.134657,-0.814683 0.226277,-2.530434 0.228515,-3.957032 0.0018,-1.151991 0.03738,-1.786952 0.123047,-2.09375 0.08567,-0.306797 0.146596,-0.346025 0.509766,-0.583984 0.277812,-0.182036 0.184211,-0.198172 0.742187,-0.27539 0.557976,-0.07722 1.676141,-0.135383 3.941406,-0.167969 4.530532,-0.06517 13.671827,-0.04317 32.525391,-0.0098 z m 21.88477,2.017578 c -0.0207,0.03385 -0.0168,0.155931 -0.0391,0.181641 -0.0166,0.01919 -0.0883,0.01364 -0.10742,0.03125 0.0554,-0.06408 0.0995,-0.140241 0.14649,-0.212891 z m -1.33594,2.253907 c -0.71232,-10e-7 -1.44408,0.217515 -1.9336,0.707031 -0.580313,0.580479 -0.694209,1.480168 -0.695308,2.412109 -7.45e-4,0.631476 0.233288,1.179387 0.427738,1.740234 h -0.376957 l 0.580077,0.828126 c 0.44318,0.632738 1.20579,0.918417 1.96094,1.001953 0.75515,0.08353 1.55801,-0.02481 2.10351,-0.570313 0.16881,-0.168809 0.22565,-0.326994 0.28907,-0.507812 0.0634,-0.180818 0.1143,-0.38465 0.15625,-0.609375 0.0839,-0.449451 0.13281,-0.983242 0.13281,-1.523438 0,-1.112383 -0.13836,-1.955597 -0.58594,-2.580078 -0.44758,-0.624481 -1.20123,-0.898438 -2.05859,-0.898437 z M 102.42578,63 c 0.0771,0 0.20112,0.05275 0.36133,0.259766 0.16021,0.207012 0.31621,0.539984 0.41016,0.902343 0.18789,0.72472 0.067,1.526748 -0.15625,1.75 -0.12764,0.127633 -0.52617,0.267579 -0.49024,0.267579 0.0494,0 -0.038,-0.0071 -0.1582,-0.109376 -0.12022,-0.102268 -0.26649,-0.273169 -0.39844,-0.474609 -0.2639,-0.40288 -0.45312,-0.940937 -0.45312,-1.234375 0,-0.197713 0.15429,-0.614345 0.38281,-0.919922 C 102.15234,63.135829 102.47453,63 102.42578,63 Z M 102.25,68.644531 c -0.40594,0.03052 -0.80216,0.110912 -1.15625,0.253907 -0.35409,0.142994 -0.68841,0.344037 -0.88477,0.710937 -0.321956,0.601573 -0.421026,1.388893 -0.412105,2.208984 0.0089,0.820092 0.138419,1.657276 0.441405,2.322266 l 0.14063,0.308594 h 0.11914 c 0.15781,0.2481 0.29316,0.519429 0.55468,0.658203 0.38409,0.203807 0.81091,0.240234 1.35743,0.240234 0.46211,0 0.85917,-0.03096 1.2207,-0.138672 0.36153,-0.107707 0.69213,-0.313492 0.91992,-0.615234 0.45559,-0.603483 0.51758,-1.410094 0.51758,-2.595703 0,-0.574049 -0.0496,-1.139572 -0.13281,-1.611328 -0.0416,-0.235878 -0.0915,-0.44756 -0.1543,-0.634766 -0.0628,-0.187205 -0.11435,-0.348725 -0.29102,-0.525391 -0.57172,-0.57172 -1.42835,-0.643079 -2.24023,-0.582031 z m 1.30273,1.291016 c 0.0361,0.0195 0.17536,0.01911 0.19336,0.03711 -0.0602,-0.06025 -10e-4,5.96e-4 0.0371,0.115235 0.0115,0.03438 0.0233,0.100956 0.0352,0.144531 -0.0766,-0.114931 -0.17365,-0.201132 -0.26563,-0.296875 z m -2.40625,0.166015 c -0.003,0.004 -0.007,0.0057 -0.01,0.0098 3.6e-4,-6.88e-4 -3.7e-4,-0.0032 0,-0.0039 3.9e-4,-7.35e-4 0.009,-0.005 0.01,-0.0059 z m 1.12891,0.265626 c 0.11701,-0.04015 0.22436,-0.03097 0.37109,0.05469 0.29348,0.171315 0.66211,0.726234 0.66211,1.576172 0,0.301386 -0.0421,0.633203 -0.10742,0.894531 -0.0653,0.261328 -0.19604,0.463622 -0.16015,0.427734 -0.26689,0.266884 -0.43329,0.285286 -0.59571,0.251954 -0.16242,-0.03333 -0.37141,-0.175464 -0.54687,-0.445313 -0.35093,-0.539699 -0.49078,-1.499612 -0.0547,-2.314453 0.15704,-0.293437 0.31463,-0.405165 0.43164,-0.445312 z m -51.191406,2.402343 c 0.01349,0.06705 0.03077,0.127262 0.04297,0.195313 -0.01493,-0.06585 -0.02663,-0.130439 -0.04297,-0.195313 z m 50.328126,1.226563 c 0.0812,0.08165 0.17872,0.133052 0.27148,0.199218 -0.0263,-0.0094 -0.11744,-0.0074 -0.13671,-0.01758 -0.0468,-0.0248 -0.0935,-0.137461 -0.13477,-0.18164 z m 1.01367,2.0625 c -0.39711,0 -0.79789,0.0525 -1.15039,0.140625 -0.3525,0.08813 -0.6473,0.16684 -0.91601,0.435547 -0.32779,0.327785 -0.418006,0.734359 -0.496099,1.199218 -0.07809,0.464859 -0.102918,0.992904 -0.08398,1.525391 0.01893,0.532487 0.08093,1.065495 0.191406,1.533203 0.110473,0.467708 0.238523,0.873294 0.556633,1.191406 0.55396,0.553965 1.37374,0.622105 2.15625,0.560547 0.78251,-0.06156 1.57938,-0.244975 2.00391,-0.914062 0.21464,-0.338279 0.26253,-0.699554 0.3125,-1.144531 0.05,-0.444978 0.0649,-0.954378 0.0508,-1.457032 -0.0141,-0.502653 -0.0556,-0.99685 -0.13086,-1.417968 -0.0752,-0.421119 -0.10379,-0.750277 -0.42969,-1.076172 -0.26871,-0.268719 -0.56351,-0.347422 -0.91601,-0.435547 -0.3525,-0.08813 -0.75133,-0.140625 -1.14844,-0.140625 z m 1.0332,1.214844 c 0.13625,0.05597 0.3112,0.131509 0.28711,0.107421 -0.0223,-0.02234 0.0309,0.112799 0.0352,0.13086 -0.0817,-0.110596 -0.22093,-0.147442 -0.32227,-0.238281 z m -2.12109,0.01953 c -0.13469,0.125068 -0.2512,0.262166 -0.3418,0.419922 0.0463,-0.12322 0.10753,-0.332132 0.10743,-0.332032 -0.0197,0.01966 0.14053,-0.04558 0.23437,-0.08789 z m 1.24414,0.542969 c 0.1273,0.03228 0.26593,0.125943 0.39649,0.318359 0.26111,0.384832 0.41829,1.142684 0.20312,2 -0.16332,0.650707 -0.83796,0.845643 -1.29102,0.392578 -0.15026,-0.150263 -0.32859,-0.762567 -0.27734,-1.367187 0.0512,-0.604621 0.3368,-1.142193 0.47461,-1.228516 0.22333,-0.139892 0.36684,-0.147517 0.49414,-0.115234 z m -52.228514,1.771484 c -0.03814,0.08263 -0.05131,0.187588 -0.0918,0.267578 -0.04888,0.09657 -0.255533,0.27662 -0.332031,0.392578 0.151422,-0.218289 0.294655,-0.436326 0.423828,-0.660156 z m 53.460934,1.488281 c -0.003,0.0069 -0.0149,0.06923 -0.0156,0.07031 -0.002,0.0024 -0.0272,0.0091 -0.0293,0.01172 0.0205,-0.02255 0.0255,-0.05835 0.0449,-0.08203 z M 48.470703,81.98828 c -0.09099,0.08819 -0.120554,0.165208 -0.212891,0.25 -0.104648,0.0961 -0.199791,0.157056 -0.304687,0.248047 0.180778,-0.157882 0.344816,-0.330119 0.517578,-0.498047 z m -1.451172,1.25586 c -0.0096,0.0067 -0.02171,0.01881 -0.03125,0.02539 -0.02658,0.01833 -0.0324,0.01391 -0.05859,0.03125 0.02977,-0.02126 0.06015,-0.03506 0.08984,-0.05664 z m 55.484379,0.222656 c -0.41611,0 -0.83339,0.0513 -1.19922,0.138672 -0.36583,0.08737 -0.66709,0.161228 -0.94531,0.439453 -0.3189,0.318892 -0.412442,0.711656 -0.490239,1.160156 -0.0778,0.4485 -0.102016,0.958606 -0.08398,1.472656 0.01803,0.51405 0.07735,1.029709 0.185547,1.488282 0.108202,0.458572 0.241562,0.859576 0.531242,1.179687 l 0.91603,1.013672 v -0.582031 c 0.26391,0.111996 0.47813,0.349744 0.76561,0.359375 0.63169,0.02116 1.28006,-0.199096 1.87696,-0.617188 0.63213,-0.442769 0.91014,-1.2243 1,-2.080078 0.0899,-0.855778 -0.0262,-1.82131 -0.3711,-2.728515 -0.15958,-0.419716 -0.38396,-0.801496 -0.77733,-1.011719 -0.39338,-0.210223 -0.8227,-0.232422 -1.4082,-0.232422 z m -59.382816,1.367187 c -0.04125,0.03945 -0.06745,0.03557 0.0078,0.03516 -0.0077,0.0079 -0.01209,0.01723 -0.01953,0.02539 -3.21e-4,-0.0021 0.02359,-0.0719 0.01172,-0.06055 z m 59.201176,0.392578 c 0.14471,-0.0069 0.29033,0.04067 0.4414,0.166016 0.30215,0.250703 0.57496,0.833414 0.48242,1.601563 -0.0354,0.293552 -0.39772,0.880526 -0.61132,1.021484 -0.30095,0.198588 -0.40176,0.201288 -0.35547,0.207031 0.0463,0.0057 -0.0469,-0.01971 -0.28711,-0.285156 -0.21023,-0.232295 -0.40609,-0.781951 -0.4336,-1.3125 -0.0275,-0.530549 0.1354,-1.016256 0.25,-1.130859 0.20113,-0.201126 0.36896,-0.260725 0.51368,-0.267579 z m 1.34765,2.917969 c -0.0845,0.151765 -0.12503,0.448811 -0.21484,0.511719 -0.0437,0.03058 -0.0778,0.01395 -0.1211,0.04102 0.17136,-0.140757 0.20894,-0.370294 0.33594,-0.552735 z m -1.87695,3.6875 c -0.27503,0.08682 -0.54243,0.167951 -0.73047,0.382813 0.006,-0.01 0.005,-0.05347 0.0117,-0.0625 0.0986,-0.133517 0.40958,-0.224712 0.71875,-0.320313 z m 1.12891,0.103516 c 0.15848,0.06691 0.37173,0.01418 0.50195,0.132812 0.0433,0.03946 0.0326,0.13659 0.0723,0.181641 -0.16219,-0.157995 -0.3693,-0.221356 -0.57421,-0.314453 z M 118.25,92.650391 c -1.3e-4,8.78e-4 1.3e-4,0.003 0,0.0039 -0.11732,0.762447 -0.29317,1.116052 -0.6582,1.373047 -0.0287,0.02017 -0.13929,0.02182 -0.17188,0.04102 0.41746,-0.350832 0.67777,-0.837929 0.83008,-1.417967 z"
         id="path1664-7" />
    </g>
    <rect
       style="fill:#ffffff;fill-opacity:1;fill-rule:nonzero;stroke:#5e5397;stroke-width:0.9;stroke-miterlimit:4;stroke-dasharray:none;stroke-opacity:1;paint-order:normal"
       id="rect2562"
       width="37.729126"
       height="26.387789"
       x="21.722527"
       y="9.2178726"
       ry="0.54478735"
       transform="rotate(-6)" />
  </g>
</svg>
